<svg width="452" height="367" viewBox="0 0 452 367" fill="none" xmlns="http://www.w3.org/2000/svg">
<path fill-rule="evenodd" clip-rule="evenodd" d="M256.569 270.752C224.146 284.41 180.581 280.681 147.19 282.611C109.127 284.81 90.4884 342.205 71.7378 319.527C52.9998 296.864 88.1465 249.069 87.2484 219.29C86.2864 187.395 42.6174 159.865 68.5683 130.029C94.8122 99.8556 148.763 108.987 190.53 100.545C218.975 94.7961 245.463 90.9272 273.66 88.577C310.389 85.5155 352.598 70.6196 380.104 84.7439C409.013 99.5883 419.318 131.146 416.381 161.863C413.529 191.694 391.488 221.892 364.537 247.567C340.274 270.68 289.18 257.016 256.569 270.752Z" fill="#A6FFFF" fill-opacity="0.3"/>
</svg>
